<?xml version="1.0" encoding="UTF-8"?>
<!-- Created with Inkscape (http://www.inkscape.org/) -->
<svg width="105.83mm" height="105.83mm" version="1.1" viewBox="0 0 105.83 105.83" xmlns="http://www.w3.org/2000/svg" xmlns:cc="http://creativecommons.org/ns#" xmlns:dc="http://purl.org/dc/elements/1.1/" xmlns:rdf="http://www.w3.org/1999/02/22-rdf-syntax-ns#">
 <metadata>
  <rdf:RDF>
   <cc:Work rdf:about="">
    <dc:format>image/svg+xml</dc:format>
    <dc:type rdf:resource="http://purl.org/dc/dcmitype/StillImage"/>
   </cc:Work>
  </rdf:RDF>
 </metadata>
 <g transform="translate(-95.583 -19.647)">
  <path d="m111.08 35.146c-20.729 20.729-20.729 54.106 1e-5 74.835 20.729 20.729 54.106 20.729 74.835 2e-5 20.729-20.729 20.729-54.106 0-74.835-20.729-20.729-54.106-20.729-74.835 0zm24.945 24.945c3.4549-3.4549 9.0177-3.4549 12.473 1e-5l12.473 12.473c3.4549 3.4549 3.4549 9.0177 1e-5 12.473-3.4549 3.4549-9.0177 3.4549-12.473 5e-6l-12.473-12.473c-3.4549-3.4549-3.4549-9.0177-1e-5 -12.473z" fill="#EEEEEE"/>
 </g>
</svg>
